<svg xmlns="http://www.w3.org/2000/svg" width="60" height="60" viewBox="0 0 60 60" fill="none">
<g clip-path="url(#clip0_912_1344)">
<rect x="2.5" y="2.5" width="55" height="55" rx="27.5" fill="white"/>
<path d="M26.2945 0.19133C22.2979 0.711143 18.4747 1.97217 15.0656 3.89739C9.96152 6.78523 5.64714 11.3673 3.08548 16.6039C1.50611 19.8479 0.629749 22.7454 0.128973 26.3744C-0.063633 27.8087 -0.034742 32.3811 0.177125 33.8828C0.803095 38.2819 2.11282 41.9976 4.27001 45.5304C7.22651 50.3627 11.435 54.2613 16.3079 56.6871C20.3815 58.7182 24.1566 59.7386 28.4421 59.96C35.9537 60.3547 43.552 57.8134 49.2147 53.0003C52.6045 50.1221 55.041 47.0129 56.9478 43.1624C59.2109 38.5804 60.2413 33.5266 59.9524 28.4344C59.7213 24.2278 58.8353 20.7816 57.0152 16.9697C55.2336 13.2444 53.0571 10.395 49.6769 7.34354C46.6915 4.65785 42.4542 2.33796 38.3806 1.16357C36.7049 0.682259 35.5203 0.441608 33.6328 0.19133C31.6297 -0.0589485 28.288 -0.0685768 26.2945 0.19133ZM33.1802 9.38428C35.1062 9.76933 36.5508 10.2506 38.1302 11.04C39.411 11.6849 40.2199 12.2047 41.4622 13.1866C44.621 15.6798 46.9323 19.2607 47.8664 23.0919C48.2998 24.8535 48.3287 25.0749 48.3864 26.7498C48.4731 29.3008 48.3479 30.6388 47.799 32.6795C47.433 34.0176 47.1345 34.778 46.4026 36.2412C45.9885 37.0594 44.9099 38.7825 44.6306 39.0905C44.5536 39.1676 44.178 39.6007 43.7928 40.0628C43.4076 40.5248 42.7142 41.2179 42.2519 41.5933C41.7897 41.9784 41.3948 42.3249 41.3659 42.3634C41.2408 42.5271 39.3821 43.7303 38.5732 44.1635C34.2684 46.4642 29.1066 46.9455 24.3203 45.4727C22.0379 44.77 19.3896 43.2683 17.5791 41.6511C16.3753 40.573 15.2197 39.2831 14.5455 38.2627C13.3321 36.4337 12.6965 35.0957 12.0706 33.0646C11.7046 31.8709 11.6372 31.5148 11.4638 30.1286C11.0497 26.9327 11.5216 24.1123 12.9277 21.3207C13.6499 19.8768 14.3626 18.8949 15.5086 17.7494C17.4924 15.7664 19.0622 14.746 21.3734 13.9567C24.7248 12.8112 28.3747 12.8593 31.6779 14.0915C34.0854 14.9963 36.2426 16.5558 38.1205 18.7505C39.4399 20.2907 40.7785 23.2556 41.183 25.5081C41.3756 26.5573 41.3563 30.0323 41.1445 31.0431C40.9711 31.9287 40.8266 32.3426 40.7111 32.3426C40.6629 32.3426 40.5089 32.1694 40.374 31.9672C40.037 31.457 39.594 31.0623 39.0643 30.7832C38.6887 30.5907 38.4769 30.5618 37.6583 30.5618C36.7723 30.5618 36.6567 30.5907 36.1848 30.8506C35.8959 31.0046 35.4818 31.3415 35.2507 31.5918C34.9907 31.8806 34.721 32.0731 34.5381 32.1116C34.2684 32.1694 34.1914 32.1212 33.7676 31.688C32.795 30.6869 31.7838 30.3211 30.6378 30.5618C29.8577 30.7254 29.5592 30.8794 29.0295 31.3993C27.7102 32.6892 27.7583 34.5181 29.1643 36.6455C29.8577 37.6948 31.9571 39.7836 32.9876 40.4478C34.0277 41.1217 34.3455 41.2372 34.827 41.0832C35.0388 41.0254 35.2025 40.9484 35.2025 40.9099C35.2025 40.8714 35.3277 40.7847 35.4915 40.7174C36.1848 40.4286 38.1109 38.7344 39.0547 37.5889C40.1236 36.2797 41.2696 34.3352 41.9245 32.7277C42.1942 32.0635 42.2905 31.7554 42.6083 30.6581C43.3402 28.0879 43.0513 24.3433 41.8764 21.2726C40.3259 17.2103 37.3597 14.2262 33.1994 12.5513C31.1771 11.7331 29.1066 11.3576 26.6605 11.3576C24.1951 11.3576 22.558 11.7234 20.42 12.7534C19.2451 13.3214 18.9177 13.5235 17.2806 14.6979C16.6642 15.1407 16.1345 15.4969 16.096 15.4969C15.9612 15.4969 16.2405 15.1215 16.8761 14.4669C19.8133 11.4347 24.4262 9.36504 28.7502 9.15326C30.2911 9.07626 32.1401 9.17251 33.1802 9.38428ZM12.6676 19.0874C12.6676 19.1548 12.6099 19.2896 12.5424 19.3955C12.4654 19.5014 12.3402 19.7709 12.2535 19.9923C12.1669 20.2137 12.0128 20.5795 11.9068 20.8105C10.8379 23.2267 10.2023 26.9616 10.4334 29.4933C10.8186 33.6903 11.9261 36.7225 14.247 39.9473C14.9596 40.9388 16.8376 42.8447 17.9932 43.7303C21.1616 46.1658 24.8596 47.523 29.0392 47.7926C30.2237 47.86 32.7853 47.6386 33.9025 47.369C34.1721 47.3016 34.5766 47.2054 34.8173 47.1476C36.2426 46.8203 38.5828 45.8096 40.114 44.8662C42.0208 43.6822 44.1395 41.7377 45.401 40.0339C46.1715 38.9943 46.2581 38.8884 46.3641 38.8884C46.4122 38.8884 46.7493 39.129 47.1056 39.4178C47.4619 39.7162 48.0012 40.1013 48.3094 40.2938C49.0028 40.7077 49.022 40.8425 48.4731 41.6318C46.287 44.7796 43.5617 47.1284 40.1622 48.8033C37.7835 49.9777 36.2619 50.4109 32.9972 50.8729C30.5318 51.2195 27.0072 50.8344 24.1373 49.8911C22.895 49.4868 20.3237 48.245 19.2355 47.5134C15.0945 44.7603 12.215 41.035 10.6838 36.4337C10.2793 35.2208 10.1734 34.8069 9.81706 32.9683C9.5763 31.7362 9.5763 27.6547 9.80743 26.4707C9.90374 26.0183 10.0193 25.3926 10.0771 25.0749C10.2889 23.9294 11.1653 21.4651 11.7624 20.3581C12.3884 19.2029 12.5328 18.9623 12.5906 18.9623C12.6387 18.9623 12.6676 19.0201 12.6676 19.0874ZM50.1873 35.4037C51.0444 35.8465 51.4296 36.4819 51.4296 37.4445C51.4296 38.5996 50.7748 39.4082 49.6191 39.7162C48.6272 39.9761 47.5293 39.4467 47.0286 38.4552C46.7397 37.9065 46.7589 36.915 47.0671 36.376C47.3271 35.8947 47.8375 35.4615 48.3576 35.269C48.8487 35.0861 49.6962 35.1535 50.1873 35.4037Z" fill="#BF0059"/>
</g>
<defs>
<clipPath id="clip0_912_1344">
<rect width="60" height="60" fill="white"/>
</clipPath>
</defs>
</svg>