<svg xmlns="http://www.w3.org/2000/svg" width="191" height="60" viewBox="0 0 191 60" fill="none">
<g clip-path="url(#clip0_912_1296)">
<rect x="2.5" y="2.5" width="55" height="55" rx="27.5" fill="white"/>
<path d="M26.2945 0.19133C22.2979 0.711142 18.4747 1.97217 15.0656 3.89739C9.96152 6.78523 5.64714 11.3673 3.08548 16.6039C1.50611 19.8479 0.629749 22.7454 0.128973 26.3744C-0.063633 27.8087 -0.034742 32.3811 0.177125 33.8828C0.803095 38.2819 2.11282 41.9976 4.27001 45.5304C7.22651 50.3627 11.435 54.2613 16.3079 56.6871C20.3815 58.7182 24.1566 59.7386 28.4421 59.96C35.9537 60.3547 43.552 57.8134 49.2147 53.0003C52.6045 50.1221 55.041 47.0129 56.9478 43.1624C59.2109 38.5804 60.2413 33.5266 59.9524 28.4344C59.7213 24.2278 58.8353 20.7816 57.0152 16.9697C55.2336 13.2444 53.0571 10.395 49.6769 7.34355C46.6915 4.65785 42.4542 2.33796 38.3806 1.16357C36.7049 0.68226 35.5203 0.44161 33.6328 0.19133C31.6297 -0.0589491 28.288 -0.0685752 26.2945 0.19133ZM33.1802 9.38429C35.1062 9.76933 36.5508 10.2506 38.1302 11.04C39.411 11.6849 40.2199 12.2047 41.4622 13.1866C44.621 15.6798 46.9323 19.2607 47.8664 23.0919C48.2998 24.8535 48.3287 25.0749 48.3864 26.7498C48.4731 29.3008 48.3479 30.6388 47.799 32.6795C47.433 34.0176 47.1345 34.778 46.4026 36.2412C45.9885 37.0594 44.9099 38.7825 44.6306 39.0905C44.5536 39.1676 44.178 39.6007 43.7928 40.0628C43.4076 40.5248 42.7142 41.2179 42.2519 41.5933C41.7897 41.9784 41.3948 42.3249 41.3659 42.3634C41.2408 42.5271 39.3821 43.7303 38.5732 44.1635C34.2684 46.4642 29.1066 46.9455 24.3203 45.4727C22.0379 44.77 19.3896 43.2683 17.5791 41.6511C16.3753 40.573 15.2197 39.2831 14.5455 38.2627C13.3321 36.4337 12.6965 35.0957 12.0706 33.0646C11.7046 31.8709 11.6372 31.5148 11.4638 30.1286C11.0497 26.9327 11.5216 24.1123 12.9277 21.3207C13.6499 19.8768 14.3626 18.8949 15.5086 17.7494C17.4924 15.7664 19.0622 14.746 21.3734 13.9567C24.7248 12.8112 28.3747 12.8593 31.6779 14.0915C34.0854 14.9963 36.2426 16.5558 38.1205 18.7505C39.4399 20.2907 40.7785 23.2556 41.183 25.5081C41.3756 26.5573 41.3563 30.0323 41.1445 31.0431C40.9711 31.9287 40.8266 32.3426 40.7111 32.3426C40.6629 32.3426 40.5089 32.1694 40.374 31.9672C40.037 31.457 39.594 31.0623 39.0643 30.7832C38.6887 30.5907 38.4769 30.5618 37.6583 30.5618C36.7723 30.5618 36.6567 30.5907 36.1848 30.8506C35.8959 31.0046 35.4818 31.3415 35.2507 31.5918C34.9907 31.8806 34.721 32.0731 34.5381 32.1116C34.2684 32.1694 34.1914 32.1212 33.7676 31.688C32.795 30.6869 31.7838 30.3211 30.6378 30.5618C29.8577 30.7254 29.5592 30.8795 29.0295 31.3993C27.7102 32.6892 27.7583 34.5181 29.1643 36.6455C29.8577 37.6948 31.9571 39.7836 32.9876 40.4478C34.0277 41.1217 34.3455 41.2372 34.827 41.0832C35.0388 41.0254 35.2025 40.9484 35.2025 40.9099C35.2025 40.8714 35.3277 40.7847 35.4915 40.7174C36.1848 40.4286 38.1109 38.7344 39.0547 37.5889C40.1236 36.2797 41.2696 34.3352 41.9245 32.7277C42.1942 32.0635 42.2905 31.7554 42.6083 30.6581C43.3402 28.0879 43.0513 24.3433 41.8764 21.2726C40.3259 17.2103 37.3597 14.2262 33.1994 12.5513C31.1771 11.7331 29.1066 11.3576 26.6605 11.3576C24.1951 11.3576 22.558 11.7234 20.42 12.7534C19.2451 13.3214 18.9177 13.5235 17.2806 14.6979C16.6642 15.1407 16.1345 15.4969 16.096 15.4969C15.9612 15.4969 16.2405 15.1215 16.8761 14.4669C19.8133 11.4347 24.4262 9.36504 28.7502 9.15326C30.2911 9.07626 32.1401 9.17251 33.1802 9.38429ZM12.6676 19.0874C12.6676 19.1548 12.6099 19.2896 12.5424 19.3955C12.4654 19.5014 12.3402 19.7709 12.2535 19.9923C12.1669 20.2137 12.0128 20.5795 11.9068 20.8105C10.8379 23.2267 10.2023 26.9616 10.4334 29.4933C10.8186 33.6903 11.9261 36.7225 14.247 39.9473C14.9596 40.9388 16.8376 42.8447 17.9932 43.7303C21.1616 46.1658 24.8596 47.523 29.0392 47.7926C30.2237 47.86 32.7853 47.6386 33.9025 47.369C34.1721 47.3016 34.5766 47.2054 34.8173 47.1476C36.2426 46.8203 38.5828 45.8096 40.114 44.8662C42.0208 43.6822 44.1395 41.7377 45.401 40.0339C46.1715 38.9943 46.2581 38.8884 46.3641 38.8884C46.4122 38.8884 46.7493 39.129 47.1056 39.4178C47.4619 39.7162 48.0012 40.1013 48.3094 40.2938C49.0028 40.7077 49.022 40.8425 48.4731 41.6318C46.287 44.7796 43.5617 47.1284 40.1622 48.8033C37.7835 49.9777 36.2619 50.4109 32.9972 50.8729C30.5318 51.2195 27.0072 50.8344 24.1373 49.8911C22.895 49.4868 20.3237 48.245 19.2355 47.5134C15.0945 44.7603 12.215 41.035 10.6838 36.4337C10.2793 35.2208 10.1734 34.8069 9.81706 32.9683C9.5763 31.7362 9.5763 27.6547 9.80743 26.4707C9.90374 26.0183 10.0193 25.3926 10.0771 25.0749C10.2889 23.9294 11.1653 21.4651 11.7624 20.3581C12.3884 19.2029 12.5328 18.9623 12.5906 18.9623C12.6387 18.9623 12.6676 19.0201 12.6676 19.0874ZM50.1873 35.4037C51.0444 35.8465 51.4296 36.4819 51.4296 37.4445C51.4296 38.5996 50.7748 39.4082 49.6191 39.7162C48.6272 39.9761 47.5293 39.4467 47.0286 38.4552C46.7397 37.9065 46.7589 36.915 47.0671 36.376C47.3271 35.8947 47.8375 35.4615 48.3576 35.269C48.8487 35.0861 49.6962 35.1535 50.1873 35.4037Z" fill="#BF0059"/>
</g>
<path d="M72.2637 12.9961V10.9658H83.1621V12.9961H78.8818V24H76.5352V12.9961H72.2637ZM83.373 10.9658H85.9834L88.752 16.7842C88.875 17.0361 88.998 17.3086 89.1211 17.6016C89.2441 17.8887 89.335 18.1113 89.3936 18.2695L89.4902 18.5156H89.5254C89.6777 17.9355 89.8535 17.3643 90.0527 16.8018L92.1445 10.9658H94.623L90.6064 21.2666C90.4834 21.5771 90.3574 21.8613 90.2285 22.1191C90.0996 22.3711 89.9355 22.6348 89.7363 22.9102C89.5371 23.1797 89.3232 23.4082 89.0947 23.5957C88.8721 23.7773 88.6025 23.9268 88.2861 24.0439C87.9697 24.167 87.6299 24.2285 87.2666 24.2285C86.3936 24.2285 85.5234 23.9238 84.6562 23.3145L85.7021 21.5479C86.2412 21.9697 86.7305 22.1807 87.1699 22.1807C87.4863 22.1807 87.7441 22.0869 87.9434 21.8994C88.1484 21.7061 88.3242 21.4189 88.4707 21.0381L83.373 10.9658ZM96.2402 24V10.9658H101.268C102.07 10.9658 102.785 11.1416 103.412 11.4932C104.045 11.8447 104.537 12.3428 104.889 12.9873C105.24 13.6318 105.416 14.373 105.416 15.2109C105.416 16.043 105.24 16.7871 104.889 17.4434C104.537 18.0938 104.045 18.6006 103.412 18.9639C102.785 19.3213 102.07 19.5 101.268 19.5H98.6045V24H96.2402ZM98.6045 17.4434H100.828C101.514 17.4434 102.05 17.2441 102.437 16.8457C102.823 16.4414 103.017 15.8936 103.017 15.2021C103.017 14.5283 102.823 13.9922 102.437 13.5938C102.056 13.1953 101.531 12.9961 100.863 12.9961H98.6045V17.4434ZM107.473 24V10.9658H109.837V16.2744H111.533L114.592 10.9658H117.158L113.476 17.1709V17.2061L117.387 24H114.706L111.533 18.3047H109.837V24H107.473ZM123.768 24V10.9658H131.766V12.9961H126.132V16.0107H128.742C129.533 16.0107 130.236 16.1748 130.852 16.5029C131.467 16.8252 131.947 17.2939 132.293 17.9092C132.645 18.5186 132.82 19.2275 132.82 20.0361C132.82 20.8096 132.65 21.498 132.311 22.1016C131.971 22.7051 131.493 23.1738 130.878 23.5078C130.269 23.8359 129.574 24 128.795 24H123.768ZM126.132 21.9609H128.373C129.018 21.9609 129.519 21.7881 129.876 21.4424C130.233 21.0967 130.412 20.6279 130.412 20.0361C130.412 19.4326 130.228 18.9521 129.858 18.5947C129.489 18.2314 128.982 18.0498 128.338 18.0498H126.132V21.9609ZM133.436 10.9658H136.046L138.814 16.7842C138.938 17.0361 139.061 17.3086 139.184 17.6016C139.307 17.8887 139.397 18.1113 139.456 18.2695L139.553 18.5156H139.588C139.74 17.9355 139.916 17.3643 140.115 16.8018L142.207 10.9658H144.686L140.669 21.2666C140.546 21.5771 140.42 21.8613 140.291 22.1191C140.162 22.3711 139.998 22.6348 139.799 22.9102C139.6 23.1797 139.386 23.4082 139.157 23.5957C138.935 23.7773 138.665 23.9268 138.349 24.0439C138.032 24.167 137.692 24.2285 137.329 24.2285C136.456 24.2285 135.586 23.9238 134.719 23.3145L135.765 21.5479C136.304 21.9697 136.793 22.1807 137.232 22.1807C137.549 22.1807 137.807 22.0869 138.006 21.8994C138.211 21.7061 138.387 21.4189 138.533 21.0381L133.436 10.9658ZM144.967 24L149.001 17.3906L145.107 10.9658H147.806L149.607 14.1562L150.416 15.7383H150.451C150.697 15.1992 150.967 14.6719 151.26 14.1562L153.079 10.9658H155.777L151.866 17.3906L155.918 24H153.272L151.242 20.4932C151.113 20.2705 150.981 20.0303 150.847 19.7725C150.712 19.5146 150.609 19.3154 150.539 19.1748L150.434 18.9551H150.398C150.152 19.4824 149.889 19.9951 149.607 20.4932L147.577 24H144.967ZM156.27 24L160.849 10.9658H163.345L167.915 24H165.489L164.373 20.6602H159.803L158.704 24H156.27ZM160.383 18.7266H163.784L162.633 15.2373C162.562 15.0205 162.483 14.7451 162.396 14.4111C162.313 14.0771 162.246 13.7959 162.193 13.5674L162.114 13.2246H162.079C161.886 14.0801 161.713 14.751 161.561 15.2373L160.383 18.7266ZM169.646 24V10.9658H174.674C175.477 10.9658 176.191 11.1416 176.818 11.4932C177.451 11.8447 177.943 12.3428 178.295 12.9873C178.646 13.6318 178.822 14.373 178.822 15.2109C178.822 16.043 178.646 16.7871 178.295 17.4434C177.943 18.0938 177.451 18.6006 176.818 18.9639C176.191 19.3213 175.477 19.5 174.674 19.5H172.011V24H169.646ZM172.011 17.4434H174.234C174.92 17.4434 175.456 17.2441 175.843 16.8457C176.229 16.4414 176.423 15.8936 176.423 15.2021C176.423 14.5283 176.229 13.9922 175.843 13.5938C175.462 13.1953 174.938 12.9961 174.27 12.9961H172.011V17.4434ZM178.787 24L183.366 10.9658H185.862L190.433 24H188.007L186.891 20.6602H182.32L181.222 24H178.787ZM182.9 18.7266H186.302L185.15 15.2373C185.08 15.0205 185.001 14.7451 184.913 14.4111C184.831 14.0771 184.764 13.7959 184.711 13.5674L184.632 13.2246H184.597C184.403 14.0801 184.23 14.751 184.078 15.2373L182.9 18.7266ZM72.5098 47.2158L73.7051 45.5459C74.1797 46.0029 74.7627 46.3721 75.4541 46.6533C76.1455 46.9346 76.8545 47.0752 77.5811 47.0752C78.1611 47.0752 78.7002 46.9814 79.1982 46.7939C79.6963 46.6064 80.1211 46.3486 80.4727 46.0205C80.8301 45.6865 81.123 45.2998 81.3516 44.8604C81.5859 44.4209 81.7441 43.9463 81.8262 43.4365H75.5771V41.5029H81.8438C81.7734 40.9873 81.6211 40.5098 81.3867 40.0703C81.1523 39.625 80.8535 39.2441 80.4902 38.9277C80.1328 38.6055 79.7051 38.3535 79.207 38.1719C78.709 37.9844 78.1758 37.8906 77.6074 37.8906C76.2656 37.8906 75.0264 38.3828 73.8896 39.3672L72.7559 37.583C73.3418 36.9854 74.0713 36.5283 74.9443 36.2119C75.8174 35.8955 76.7285 35.7373 77.6777 35.7373C78.6738 35.7373 79.5908 35.9131 80.4287 36.2646C81.2725 36.6104 81.9756 37.085 82.5381 37.6885C83.1064 38.2861 83.5488 38.9922 83.8652 39.8066C84.1816 40.6211 84.3398 41.4883 84.3398 42.4082C84.3398 43.3691 84.1699 44.2686 83.8301 45.1064C83.4961 45.9443 83.0332 46.668 82.4414 47.2773C81.8555 47.8809 81.1406 48.3584 80.2969 48.71C79.459 49.0557 78.5537 49.2285 77.5811 49.2285C76.5615 49.2285 75.6211 49.0469 74.7598 48.6836C73.8984 48.3145 73.1484 47.8252 72.5098 47.2158ZM86.7305 49V35.9658H89.0947V41.2744H90.791L93.8496 35.9658H96.416L92.7334 42.1709V42.2061L96.6445 49H93.9639L90.791 43.3047H89.0947V49H86.7305ZM96.8027 35.9658H99.4131L102.182 41.7842C102.305 42.0361 102.428 42.3086 102.551 42.6016C102.674 42.8887 102.765 43.1113 102.823 43.2695L102.92 43.5156H102.955C103.107 42.9355 103.283 42.3643 103.482 41.8018L105.574 35.9658H108.053L104.036 46.2666C103.913 46.5771 103.787 46.8613 103.658 47.1191C103.529 47.3711 103.365 47.6348 103.166 47.9102C102.967 48.1797 102.753 48.4082 102.524 48.5957C102.302 48.7773 102.032 48.9268 101.716 49.0439C101.399 49.167 101.06 49.2285 100.696 49.2285C99.8232 49.2285 98.9531 48.9238 98.0859 48.3145L99.1318 46.5479C99.6709 46.9697 100.16 47.1807 100.6 47.1807C100.916 47.1807 101.174 47.0869 101.373 46.8994C101.578 46.7061 101.754 46.4189 101.9 46.0381L96.8027 35.9658ZM114.258 49V35.9658H116.622V46.9609H122.256V35.9658H124.629V46.9609H126.167V51.5752H124.058V49H114.258ZM128.408 49V35.9658H136.213V37.9961H130.772V41.415H135.167V43.4629H130.772V46.9609H136.503V49H128.408ZM138.85 49V35.9658H141.214V41.4854H147.182V35.9658H149.528V49H147.182V43.5332H141.214V49H138.85ZM151.365 37.9961V35.9658H162.264V37.9961H157.983V49H155.637V37.9961H151.365ZM164.109 49V35.9658H169.137C169.939 35.9658 170.654 36.1416 171.281 36.4932C171.914 36.8447 172.406 37.3428 172.758 37.9873C173.109 38.6318 173.285 39.373 173.285 40.2109C173.285 41.043 173.109 41.7871 172.758 42.4434C172.406 43.0938 171.914 43.6006 171.281 43.9639C170.654 44.3213 169.939 44.5 169.137 44.5H166.474V49H164.109ZM166.474 42.4434H168.697C169.383 42.4434 169.919 42.2441 170.306 41.8457C170.692 41.4414 170.886 40.8936 170.886 40.2021C170.886 39.5283 170.692 38.9922 170.306 38.5938C169.925 38.1953 169.4 37.9961 168.732 37.9961H166.474V42.4434Z" fill="white"/>
<defs>
<clipPath id="clip0_912_1296">
<rect width="60" height="60" fill="white"/>
</clipPath>
</defs>
</svg>