<svg xmlns="http://www.w3.org/2000/svg" xmlns:xlink="http://www.w3.org/1999/xlink" version="1.1" x="0px" y="0px" viewBox="0 0 256 256" enable-background="new 0 0 256 256" xml:space="preserve">
<metadata> Svg Vector Icons : http://www.onlinewebfonts.com/icon </metadata>
<g><g><g><path fill="#b70055" d="M118.4,10.1c-11,2-17.3,4-24.9,7.9C72.9,28.6,58.6,47.7,53.9,71.2c-1.4,6.9-1.2,21,0.3,27.9c4.6,21.3,17.3,44,38.9,69.3c5.7,6.7,24.5,25.8,31.1,31.6l3.9,3.4l3.9-3.4c6.5-5.8,25.3-24.9,31-31.6c21.7-25.5,34.5-48.4,38.9-69.7c1.5-7.1,1.6-20.7,0.2-27.6c-4.6-23.4-19-42.7-39.6-53.2c-6.1-3.1-10.9-4.9-17.8-6.5c-4.5-1.1-6.8-1.3-15.2-1.4C124.1,10,119.1,10,118.4,10.1z M138.5,32c16.6,3.4,30.3,13.9,37.8,29.1c4.1,8.4,5.4,13.8,5.5,23.2c0,6.6-0.2,8.3-1.4,13c-5.2,20.8-21.1,45.2-46.7,71.7l-5.7,5.8l-4.6-4.8c-27.6-28.8-43.2-52.8-48.3-74.5c-1.5-6.3-1.3-17.1,0.5-23.7c5.3-20,21.4-35.4,41.3-39.6C123.4,30.7,132.1,30.7,138.5,32z"/><path fill="#b70055" d="M120.4,59.3c-9.5,3-16.3,10.2-18.4,19.3c-3.5,14.9,5.8,29.4,20.7,32.5c2,0.4,4.3,0.8,5.3,0.8c1,0,3.4-0.4,5.3-0.8c10.2-2.2,18.3-10,20.7-20c3.2-13.8-4.8-27.6-18.4-31.8C131.5,58,124.4,58,120.4,59.3z"/><path fill="#b70055" d="M67.4,177.4c-3.9,3.1-7.1,6.4-9.6,10.1c-9.4,13.9-5.5,30.8,9.8,42.2c9.9,7.4,22.2,12.2,39.2,15.2c5.6,1,8.1,1.1,21.2,1.1c13,0,15.7-0.1,21.2-1.1c26.2-4.6,43.8-14.6,51.1-29.1c6.5-12.9,2-27.9-11.4-38.2l-3-2.3l-2.6,3c-1.4,1.7-4.5,5.3-7,8.1c-2.5,2.8-4.4,5.2-4.4,5.4c0,0.2,0.5,0.5,1.2,0.8c2,0.9,6.9,5.8,8,7.8c1.2,2.4,1.2,3.7,0,6.3c-3.3,7.3-17.3,14.1-35.2,17.3c-7.2,1.3-28.7,1.3-35.9,0c-17.6-3.1-31.9-10.1-35.2-17.3c-1.2-2.6-1.2-3.9,0-6.3c1.1-2,6-6.9,8-7.8c0.7-0.3,1.2-0.7,1.2-0.8c0-0.2-1.4-1.9-3.2-3.9c-1.8-1.9-4.9-5.5-6.9-7.9s-3.8-4.4-4-4.3C69.8,175.6,68.6,176.4,67.4,177.4z"/></g></g></g>
</svg>